<svg width="20" height="21" viewBox="0 0 20 21" fill="none" xmlns="http://www.w3.org/2000/svg">
<path d="M0 10.3379C0 15.8607 4.47715 20.3379 10 20.3379C15.5228 20.3379 20 15.8607 20 10.3379C20 4.81504 15.5228 0.337891 10 0.337891C4.47715 0.337891 0 4.81504 0 10.3379Z" fill="#2C3036"/>
<path d="M20 10.445V10.2307C15.5714 10.0879 13.55 9.98075 11.9286 8.40932C10.3571 6.78789 10.2429 4.76646 10.1071 0.337891H9.89286C9.75 4.76646 9.64286 6.78789 8.07143 8.40932C6.45 9.98075 4.42857 10.095 0 10.2307V10.445C4.42857 10.5879 6.45 10.695 8.07143 12.2665C9.64286 13.8879 9.75714 15.9093 9.89286 20.3379H10.1071C10.25 15.9093 10.3571 13.8879 11.9286 12.2665C13.55 10.695 15.5714 10.5807 20 10.445Z" fill="white"/>
</svg>
