<svg width="296" height="30" viewBox="0 0 296 30" fill="none" xmlns="http://www.w3.org/2000/svg">
<path fill-rule="evenodd" clip-rule="evenodd" d="M26.2579 17.7409H20.3443V11.8273L20.3443 0H26.2579V11.8273L38.0852 11.8273V17.7409L26.2579 17.7409ZM0.929688 17.7409V11.8273H12.757H18.6706V17.7409V29.5682H12.757V17.7409H0.929688ZM71.9412 28.8245C73.5885 29.6082 75.5076 30 77.6986 30C79.8897 30 81.8008 29.6082 83.4321 28.8245C85.0794 28.0409 86.3588 26.9454 87.2704 25.538C88.182 24.1146 88.6378 22.4594 88.6378 20.5722C88.6378 18.6851 88.182 17.0378 87.2704 15.6304C86.3588 14.207 85.0794 13.1035 83.4321 12.3199C81.8008 11.5362 79.8897 11.1444 77.6986 11.1444C75.5076 11.1444 73.5885 11.5362 71.9412 12.3199C70.3099 13.1035 69.0385 14.207 68.1269 15.6304C67.2153 17.0378 66.7595 18.6851 66.7595 20.5722C66.7595 22.4594 67.2153 24.1146 68.1269 25.538C69.0385 26.9454 70.3099 28.0409 71.9412 28.8245ZM80.2175 24.0267C79.5138 24.3305 78.6742 24.4825 77.6986 24.4825C76.7231 24.4825 75.8835 24.3305 75.1798 24.0267C74.4761 23.7068 73.9323 23.259 73.5485 22.6833C73.1807 22.0915 72.9967 21.3878 72.9967 20.5722C72.9967 19.7566 73.1807 19.0609 73.5485 18.4851C73.9323 17.8934 74.4761 17.4456 75.1798 17.1417C75.8835 16.8219 76.7231 16.662 77.6986 16.662C78.6742 16.662 79.5138 16.8219 80.2175 17.1417C80.9212 17.4456 81.457 17.8934 81.8248 18.4851C82.2086 19.0609 82.4006 19.7566 82.4006 20.5722C82.4006 21.3878 82.2086 22.0915 81.8248 22.6833C81.457 23.259 80.9212 23.7068 80.2175 24.0267ZM53.4346 17.0938H46.9575V11.5762H66.1009V17.0938H59.6238V29.5682H53.4346V17.0938ZM101.318 11.5762C102.949 11.5762 104.341 11.8481 105.492 12.3919C106.66 12.9196 107.547 13.6793 108.155 14.6708C108.763 15.6464 109.067 16.7979 109.067 18.1253C109.067 19.4527 108.763 20.6122 108.155 21.6038C107.547 22.5793 106.66 23.339 105.492 23.8827C104.341 24.4105 102.949 24.6744 101.318 24.6744H97.0241V29.5682H90.8349V11.5762H101.318ZM100.91 19.8525H97.0241V16.3981H100.91C101.518 16.3981 101.99 16.55 102.326 16.8539C102.662 17.1417 102.83 17.5655 102.83 18.1253C102.83 18.6691 102.662 19.0929 102.326 19.3967C101.99 19.7006 101.518 19.8525 100.91 19.8525ZM117.101 24.0507V11.5762H110.912V29.5682H127.704V24.0507H117.101ZM129.654 11.5762H135.843V29.5682H129.654V11.5762ZM153.713 22.4512V11.5762H159.71V29.5682H151.962L144.717 18.3115V29.5682H138.72V11.5762H146.708L153.713 22.4512ZM178.641 22.7073H168.981L168.657 24.6744H179.528V29.5682H162.112L163.432 20.5722L162.112 11.5762H179.409V16.47H168.657L168.981 18.4372H178.641V22.7073ZM212.543 29.5682H218.421V11.5762H208.849L204.586 23.3088L200.285 11.5762H190.713V29.5682H196.591V17.0005L201.508 29.5682H207.626L212.543 16.9419V29.5682ZM237.358 22.7073H227.698L227.374 24.6744H238.245V29.5682H220.829L222.149 20.5722L220.829 11.5762H238.125V16.47H227.374L227.698 18.4372H237.358V22.7073ZM256.058 12.7037C254.427 11.952 252.516 11.5762 250.325 11.5762H240.777V29.5682H250.325C252.516 29.5682 254.427 29.2004 256.058 28.4647C257.705 27.713 258.985 26.6655 259.896 25.3221C260.808 23.9627 261.264 22.3794 261.264 20.5722C261.264 18.749 260.808 17.1657 259.896 15.8223C258.985 14.4789 257.705 13.4394 256.058 12.7037ZM246.918 24.0507H250.804C251.684 24.0507 252.436 23.9147 253.059 23.6428C253.699 23.355 254.187 22.9552 254.523 22.4434C254.859 21.9156 255.026 21.2919 255.026 20.5722C255.026 19.8365 254.859 19.2128 254.523 18.701C254.187 18.1893 253.699 17.7974 253.059 17.5256C252.436 17.2377 251.684 17.0938 250.804 17.0938H246.918V24.0507ZM263.478 11.5762H269.667V29.5682H263.478V11.5762ZM278.861 26.5456L277.63 29.5682H271.033L278.925 11.5762H287.177L295.07 29.5682H288.473L287.242 26.5456H278.861ZM285.239 21.6277L283.051 16.255L280.863 21.6277H285.239Z" fill="#B99653"/>
</svg>
