<svg width="20" height="21" viewBox="0 0 20 21" fill="none" xmlns="http://www.w3.org/2000/svg">
<g clip-path="url(#clip0_2002_6569)">
<mask id="mask0_2002_6569" style="mask-type:luminance" maskUnits="userSpaceOnUse" x="0" y="0" width="20" height="21">
<path d="M20 10.3379C20 4.81504 15.5228 0.337891 10 0.337891C4.47715 0.337891 0 4.81504 0 10.3379C0 15.8607 4.47715 20.3379 10 20.3379C15.5228 20.3379 20 15.8607 20 10.3379Z" fill="white"/>
</mask>
<g mask="url(#mask0_2002_6569)">
<path d="M20 0.337891H0V20.3379H20V0.337891Z" fill="#100943"/>
<path d="M20 10.3379C25.5229 10.3379 30 5.86074 30 0.337895C30 -5.18496 25.5229 -9.66211 20 -9.66211C14.4772 -9.66211 10 -5.18496 10 0.337895C10 5.86074 14.4772 10.3379 20 10.3379Z" fill="#ED143B"/>
<path d="M12.354 9.8813H6.4453V7.54315H12.354C12.6992 7.54315 12.9391 7.60331 13.0596 7.70836C13.18 7.81342 13.2546 8.00827 13.2546 8.29291V9.13245C13.2546 9.43235 13.18 9.62719 13.0596 9.73225C12.9391 9.8373 12.6992 9.88221 12.354 9.88221V9.8813ZM12.7594 5.33878H3.93945V15.3379H6.4453V12.0848H11.0633L13.2546 15.3379H16.0607L13.6447 12.0695C14.5354 11.9375 14.9354 11.6646 15.2652 11.2147C15.5951 10.7648 15.7605 10.0456 15.7605 9.08575V8.33601C15.7605 7.76672 15.7002 7.31688 15.5951 6.97209C15.4899 6.62728 15.3102 6.32739 15.0549 6.05801C14.7853 5.80301 14.4851 5.62342 14.1247 5.5031C13.7642 5.39806 13.3139 5.33789 12.7594 5.33789V5.33878Z" fill="white"/>
</g>
</g>
<defs>
<clipPath id="clip0_2002_6569">
<rect width="20" height="20" fill="white" transform="translate(0 0.337891)"/>
</clipPath>
</defs>
</svg>
