<svg width="24" height="25" viewBox="0 0 24 25" fill="none" xmlns="http://www.w3.org/2000/svg">
<path d="M12 24.3379C18.6274 24.3379 24 18.9653 24 12.3379C24 5.71049 18.6274 0.337891 12 0.337891C5.3726 0.337891 0 5.71049 0 12.3379C0 18.9653 5.3726 24.3379 12 24.3379Z" fill="#0088CC"/>
<path d="M4.46882 12.9248C5.87161 12.1521 7.43751 11.5072 8.90061 10.859C11.4177 9.79733 13.9448 8.75403 16.4974 7.78273C16.9941 7.61723 17.8864 7.45538 17.9739 8.19138C17.926 9.23318 17.7289 10.2689 17.5937 11.3046C17.2506 13.5822 16.854 15.852 16.4672 18.1221C16.334 18.8782 15.3867 19.2697 14.7806 18.7858C13.324 17.8019 11.8562 16.8276 10.4182 15.8209C9.94716 15.3422 10.384 14.6549 10.8047 14.3131C12.0044 13.1308 13.2767 12.1263 14.4137 10.8829C14.7204 10.1422 13.8142 10.7664 13.5153 10.9577C11.8729 12.0895 10.2707 13.2904 8.53906 14.2851C7.65456 14.772 6.62366 14.3559 5.73956 14.0842C4.94685 13.756 3.78524 13.4253 4.46874 12.9249L4.46882 12.9248Z" fill="white"/>
</svg>
