<svg width="16" height="21" viewBox="0 0 16 21" fill="none" xmlns="http://www.w3.org/2000/svg">
<path fill-rule="evenodd" clip-rule="evenodd" d="M15.5193 17.729C14.5033 14.516 11.7733 12.675 8.0263 12.675H7.9993C4.2423 12.654 1.4983 14.508 0.480305 17.729L0.362305 18.103L0.696305 18.307C2.6543 19.501 5.0963 20.106 7.9523 20.106C7.9843 20.106 8.0163 20.106 8.0473 20.106C10.9433 20.106 13.3173 19.517 15.3033 18.307L15.6373 18.103L15.5193 17.729Z" fill="#5D5D5D"/>
<path fill-rule="evenodd" clip-rule="evenodd" d="M7.99983 10.4468C10.7228 10.4468 12.9388 8.23182 12.9388 5.50882C12.9388 2.78482 10.7228 0.569824 7.99983 0.569824C5.27683 0.569824 3.06183 2.78482 3.06183 5.50882C3.06183 8.23182 5.27683 10.4468 7.99983 10.4468Z" fill="#5D5D5D"/>
</svg>
