<svg width="20" height="17" viewBox="0 0 20 17" fill="none" xmlns="http://www.w3.org/2000/svg">
<path fill-rule="evenodd" clip-rule="evenodd" d="M6.09756 8.33789C6.09756 10.4712 7.8439 12.207 10 12.207C12.1463 12.207 13.8927 10.4712 13.8927 8.33789C13.8927 6.19486 12.1463 4.4591 10 4.4591C7.8439 4.4591 6.09756 6.19486 6.09756 8.33789ZM15.7366 2.38395C17.4439 3.70274 18.8976 5.63244 19.9415 8.04698C20.0195 8.23122 20.0195 8.44456 19.9415 8.6191C17.8537 13.4482 14.1366 16.3379 10 16.3379H9.99024C5.86341 16.3379 2.14634 13.4482 0.0585366 8.6191C-0.0195122 8.44456 -0.0195122 8.23122 0.0585366 8.04698C2.14634 3.21789 5.86341 0.337891 9.99024 0.337891H10C12.0683 0.337891 14.0293 1.05547 15.7366 2.38395ZM10.0012 10.7503C11.3378 10.7503 12.4304 9.66424 12.4304 8.33576C12.4304 6.99758 11.3378 5.91151 10.0012 5.91151C9.8841 5.91151 9.76702 5.92121 9.65971 5.94061C9.62068 7.00727 8.74263 7.86061 7.65971 7.86061H7.61093C7.58166 8.01576 7.56215 8.17091 7.56215 8.33576C7.56215 9.66424 8.65483 10.7503 10.0012 10.7503Z" fill="#5D5D5D"/>
</svg>
