<svg width="25" height="25" viewBox="0 0 25 25" fill="none" xmlns="http://www.w3.org/2000/svg">
<path d="M0.5 12.3379C0.5 5.71047 5.87258 0.337891 12.5 0.337891C19.1274 0.337891 24.5 5.71047 24.5 12.3379C24.5 18.9653 19.1274 24.3379 12.5 24.3379C5.87258 24.3379 0.5 18.9653 0.5 12.3379Z" fill="#0077FF"/>
<path fill-rule="evenodd" clip-rule="evenodd" d="M20.1161 8.99844C20.2346 8.62584 20.1161 8.35484 19.591 8.35484H17.8465C17.4061 8.35484 17.2029 8.59194 17.0843 8.84604C17.0843 8.84604 16.1866 11.014 14.9333 12.4197C14.5268 12.8262 14.3405 12.9617 14.1203 12.9617C14.0017 12.9617 13.8493 12.8262 13.8493 12.4536V8.98149C13.8493 8.54114 13.7138 8.33789 13.3412 8.33789H10.5974C10.3264 8.33789 10.157 8.54114 10.157 8.74439C10.157 9.16784 10.7837 9.26944 10.8514 10.455V13.0295C10.8514 13.5884 10.7498 13.69 10.5296 13.69C9.93684 13.69 8.49719 11.5051 7.63339 9.01539C7.46399 8.52419 7.29464 8.33789 6.85429 8.33789H5.09279C4.58469 8.33789 4.5 8.57504 4.5 8.82909C4.5 9.28639 5.0928 11.5898 7.26074 14.6385C8.70044 16.7218 10.7498 17.8396 12.596 17.8396C13.7138 17.8396 13.8493 17.5856 13.8493 17.1622V15.587C13.8493 15.0789 13.9509 14.9942 14.3066 14.9942C14.5607 14.9942 15.018 15.1297 16.0511 16.129C17.2367 17.3146 17.44 17.8566 18.1005 17.8566H19.8451C20.3532 17.8566 20.5903 17.6025 20.4548 17.1113C20.3024 16.6202 19.7265 15.9088 18.9813 15.0619C18.5748 14.5877 17.965 14.0627 17.7787 13.8086C17.5247 13.4699 17.5924 13.3344 17.7787 13.0295C17.7618 13.0295 19.8959 10.0147 20.1161 8.99844Z" fill="white"/>
</svg>
