<svg width="25" height="25" viewBox="0 0 25 25" fill="none" xmlns="http://www.w3.org/2000/svg">
<path d="M0.5 12.3379C0.5 18.9653 5.87258 24.3379 12.5 24.3379C19.1274 24.3379 24.5 18.9653 24.5 12.3379C24.5 5.71047 19.1274 0.337891 12.5 0.337891C5.87258 0.337891 0.5 5.71047 0.5 12.3379Z" fill="#FF0000"/>
<path d="M18.2 9.41294C18.05 8.88794 17.675 8.51294 17.15 8.36294C16.25 8.13794 12.425 8.13794 12.425 8.13794C12.425 8.13794 8.675 8.13794 7.7 8.36294C7.175 8.51294 6.8 8.88794 6.65 9.41294C6.5 10.3879 6.5 12.3379 6.5 12.3379C6.5 12.3379 6.5 14.2879 6.725 15.2629C6.875 15.7879 7.25 16.1629 7.775 16.3129C8.675 16.5379 12.5 16.5379 12.5 16.5379C12.5 16.5379 16.25 16.5379 17.225 16.3129C17.75 16.1629 18.125 15.7879 18.275 15.2629C18.5 14.2879 18.5 12.3379 18.5 12.3379C18.5 12.3379 18.5 10.3879 18.2 9.41294ZM11.3 14.1379V10.5379L14.45 12.3379L11.3 14.1379Z" fill="white"/>
</svg>
